<svg width="90" height="24" viewBox="0 0 90 24" fill="none" xmlns="http://www.w3.org/2000/svg">
<path d="M18.144 0.535999V4.92H12.192V23H6.72V4.92H0.768V0.535999H18.144ZM32.7943 23.224C30.6823 23.224 28.7409 22.7333 26.9703 21.752C25.2209 20.7707 23.8236 19.4053 22.7783 17.656C21.7543 15.8853 21.2423 13.9013 21.2423 11.704C21.2423 9.50667 21.7543 7.53333 22.7783 5.784C23.8236 4.03467 25.2209 2.66933 26.9703 1.688C28.7409 0.706666 30.6823 0.216 32.7943 0.216C34.9063 0.216 36.8369 0.706666 38.5863 1.688C40.3569 2.66933 41.7436 4.03467 42.7463 5.784C43.7703 7.53333 44.2823 9.50667 44.2823 11.704C44.2823 13.9013 43.7703 15.8853 42.7463 17.656C41.7223 19.4053 40.3356 20.7707 38.5863 21.752C36.8369 22.7333 34.9063 23.224 32.7943 23.224ZM32.7943 18.232C34.5863 18.232 36.0156 17.6347 37.0823 16.44C38.1703 15.2453 38.7143 13.6667 38.7143 11.704C38.7143 9.72 38.1703 8.14133 37.0823 6.968C36.0156 5.77333 34.5863 5.176 32.7943 5.176C30.9809 5.176 29.5303 5.76267 28.4423 6.936C27.3756 8.10933 26.8423 9.69867 26.8423 11.704C26.8423 13.688 27.3756 15.2773 28.4423 16.472C29.5303 17.6453 30.9809 18.232 32.7943 18.232ZM64.7665 0.535999V4.92H58.8145V23H53.3425V4.92H47.3905V0.535999H64.7665ZM67.8647 11.736C67.8647 9.51733 68.3447 7.544 69.3047 5.816C70.2647 4.06667 71.5981 2.712 73.3047 1.752C75.0327 0.770665 76.9847 0.279999 79.1607 0.279999C81.8274 0.279999 84.1101 0.983999 86.0087 2.392C87.9074 3.8 89.1767 5.72 89.8167 8.152H83.8007C83.3527 7.21333 82.7127 6.49867 81.8807 6.008C81.0701 5.51733 80.1421 5.272 79.0967 5.272C77.4114 5.272 76.0461 5.85867 75.0007 7.032C73.9554 8.20533 73.4327 9.77333 73.4327 11.736C73.4327 13.6987 73.9554 15.2667 75.0007 16.44C76.0461 17.6133 77.4114 18.2 79.0967 18.2C80.1421 18.2 81.0701 17.9547 81.8807 17.464C82.7127 16.9733 83.3527 16.2587 83.8007 15.32H89.8167C89.1767 17.752 87.9074 19.672 86.0087 21.08C84.1101 22.4667 81.8274 23.16 79.1607 23.16C76.9847 23.16 75.0327 22.68 73.3047 21.72C71.5981 20.7387 70.2647 19.384 69.3047 17.656C68.3447 15.928 67.8647 13.9547 67.8647 11.736Z" fill="white"/>
</svg>
